<svg width="1363" height="163" viewBox="0 0 1363 163" fill="none" xmlns="http://www.w3.org/2000/svg">
<path d="M0 15C0 6.71573 6.71573 0 15 0H37V163H15C6.71573 163 0 156.284 0 148V15Z" fill="#424242"/>
<rect width="1097" height="163" transform="translate(37)" fill="#F0F0F0"/>
<path d="M101.906 53.9219L94.3945 51.2383V48.0859L104.602 52.375V54.6367L101.906 53.9219ZM94.3945 56.1719L101.918 53.4297L104.602 52.7852V55.0352L94.3945 59.3242V56.1719ZM123.867 58.2578V61H115.277V58.2578H123.867ZM116.414 43.9375V61H112.898V43.9375H116.414ZM132.891 57.9648V48.3203H136.266V61H133.09L132.891 57.9648ZM133.266 55.3633L134.262 55.3398C134.262 56.1836 134.164 56.9688 133.969 57.6953C133.773 58.4141 133.48 59.0391 133.09 59.5703C132.699 60.0938 132.207 60.5039 131.613 60.8008C131.02 61.0898 130.32 61.2344 129.516 61.2344C128.898 61.2344 128.328 61.1484 127.805 60.9766C127.289 60.7969 126.844 60.5195 126.469 60.1445C126.102 59.7617 125.812 59.2734 125.602 58.6797C125.398 58.0781 125.297 57.3555 125.297 56.5117V48.3203H128.672V56.5352C128.672 56.9102 128.715 57.2266 128.801 57.4844C128.895 57.7422 129.023 57.9531 129.188 58.1172C129.352 58.2812 129.543 58.3984 129.762 58.4688C129.988 58.5391 130.238 58.5742 130.512 58.5742C131.207 58.5742 131.754 58.4336 132.152 58.1523C132.559 57.8711 132.844 57.4883 133.008 57.0039C133.18 56.5117 133.266 55.9648 133.266 55.3633ZM142.219 50.9453V61H138.832V48.3203H142.008L142.219 50.9453ZM141.75 54.2148H140.812C140.812 53.332 140.918 52.5195 141.129 51.7773C141.348 51.0273 141.664 50.3789 142.078 49.832C142.5 49.2773 143.02 48.8477 143.637 48.543C144.254 48.2383 144.969 48.0859 145.781 48.0859C146.344 48.0859 146.859 48.1719 147.328 48.3438C147.797 48.5078 148.199 48.7695 148.535 49.1289C148.879 49.4805 149.145 49.9414 149.332 50.5117C149.52 51.0742 149.613 51.75 149.613 52.5391V61H146.238V52.9141C146.238 52.3359 146.16 51.8906 146.004 51.5781C145.848 51.2656 145.625 51.0469 145.336 50.9219C145.055 50.7969 144.715 50.7344 144.316 50.7344C143.879 50.7344 143.496 50.8242 143.168 51.0039C142.848 51.1836 142.582 51.4336 142.371 51.7539C142.16 52.0664 142.004 52.4336 141.902 52.8555C141.801 53.2773 141.75 53.7305 141.75 54.2148ZM149.297 53.8281L148.09 53.9805C148.09 53.1523 148.191 52.3828 148.395 51.6719C148.605 50.9609 148.914 50.3359 149.32 49.7969C149.734 49.2578 150.246 48.8398 150.855 48.543C151.465 48.2383 152.168 48.0859 152.965 48.0859C153.574 48.0859 154.129 48.1758 154.629 48.3555C155.129 48.5273 155.555 48.8047 155.906 49.1875C156.266 49.5625 156.539 50.0547 156.727 50.6641C156.922 51.2734 157.02 52.0195 157.02 52.9023V61H153.633V52.9023C153.633 52.3164 153.555 51.8711 153.398 51.5664C153.25 51.2539 153.031 51.0391 152.742 50.9219C152.461 50.7969 152.125 50.7344 151.734 50.7344C151.328 50.7344 150.973 50.8164 150.668 50.9805C150.363 51.1367 150.109 51.3555 149.906 51.6367C149.703 51.918 149.551 52.2461 149.449 52.6211C149.348 52.9883 149.297 53.3906 149.297 53.8281ZM163.195 48.3203V61H159.809V48.3203H163.195ZM159.598 45.0156C159.598 44.5234 159.77 44.1172 160.113 43.7969C160.457 43.4766 160.918 43.3164 161.496 43.3164C162.066 43.3164 162.523 43.4766 162.867 43.7969C163.219 44.1172 163.395 44.5234 163.395 45.0156C163.395 45.5078 163.219 45.9141 162.867 46.2344C162.523 46.5547 162.066 46.7148 161.496 46.7148C160.918 46.7148 160.457 46.5547 160.113 46.2344C159.77 45.9141 159.598 45.5078 159.598 45.0156Z" fill="#888888"/>
<path d="M114.117 84.875H122.344V107.164C122.344 109.82 121.789 112.07 120.68 113.914C119.57 115.742 118.016 117.125 116.016 118.062C114.016 119 111.664 119.469 108.961 119.469C106.289 119.469 103.938 119 101.906 118.062C99.8906 117.125 98.3125 115.742 97.1719 113.914C96.0469 112.07 95.4844 109.82 95.4844 107.164V84.875H103.734V107.164C103.734 108.57 103.938 109.719 104.344 110.609C104.75 111.484 105.344 112.125 106.125 112.531C106.906 112.938 107.852 113.141 108.961 113.141C110.086 113.141 111.031 112.938 111.797 112.531C112.562 112.125 113.141 111.484 113.531 110.609C113.922 109.719 114.117 108.57 114.117 107.164V84.875ZM136.266 84.875V119H128.062V84.875H136.266ZM172.523 84.875H180.75V107.164C180.75 109.82 180.195 112.07 179.086 113.914C177.977 115.742 176.422 117.125 174.422 118.062C172.422 119 170.07 119.469 167.367 119.469C164.695 119.469 162.344 119 160.312 118.062C158.297 117.125 156.719 115.742 155.578 113.914C154.453 112.07 153.891 109.82 153.891 107.164V84.875H162.141V107.164C162.141 108.57 162.344 109.719 162.75 110.609C163.156 111.484 163.75 112.125 164.531 112.531C165.312 112.938 166.258 113.141 167.367 113.141C168.492 113.141 169.438 112.938 170.203 112.531C170.969 112.125 171.547 111.484 171.938 110.609C172.328 109.719 172.523 108.57 172.523 107.164V84.875ZM193.078 84.875L198.656 96.2188L204.234 84.875H213.609L204.094 101.797L213.867 119H204.398L198.656 107.445L192.914 119H183.422L193.219 101.797L183.68 84.875H193.078Z" fill="black"/>
<path d="M1134 0H1348C1356.28 0 1363 6.71573 1363 15V148C1363 156.284 1356.28 163 1348 163H1134V0Z" fill="#FE9727"/>
<path d="M1248.5 111.917C1244.51 111.917 1240.55 111.13 1236.86 109.601C1233.17 108.073 1229.82 105.832 1226.99 103.008C1221.29 97.3036 1218.08 89.567 1218.08 81.5C1218.08 73.433 1221.29 65.6964 1226.99 59.9922C1232.7 54.2879 1240.43 51.0833 1248.5 51.0833C1265.23 51.0833 1278.92 63.25 1278.92 78.4583C1278.92 83.2985 1276.99 87.9405 1273.57 91.363C1270.15 94.7856 1265.51 96.7083 1260.67 96.7083H1255.19C1254.28 96.7083 1253.67 97.3167 1253.67 98.2292C1253.67 98.5333 1253.97 98.8375 1253.97 99.1417C1255.19 100.662 1255.8 102.487 1255.8 104.312C1256.1 108.571 1252.76 111.917 1248.5 111.917ZM1248.5 57.1667C1242.05 57.1667 1235.86 59.7303 1231.29 64.2937C1226.73 68.8571 1224.17 75.0464 1224.17 81.5C1224.17 87.9536 1226.73 94.1429 1231.29 98.7063C1235.86 103.27 1242.05 105.833 1248.5 105.833C1249.41 105.833 1250.02 105.225 1250.02 104.312C1250.02 103.704 1249.72 103.4 1249.72 103.096C1248.5 101.575 1247.89 100.054 1247.89 98.2292C1247.89 93.9708 1251.24 90.625 1255.5 90.625H1260.67C1263.89 90.625 1266.99 89.3432 1269.27 87.0615C1271.55 84.7798 1272.83 81.6851 1272.83 78.4583C1272.83 66.5958 1261.88 57.1667 1248.5 57.1667ZM1231.77 75.4167C1234.2 75.4167 1236.33 77.5458 1236.33 79.9792C1236.33 82.4125 1234.2 84.5417 1231.77 84.5417C1229.34 84.5417 1227.21 82.4125 1227.21 79.9792C1227.21 77.5458 1229.34 75.4167 1231.77 75.4167ZM1240.9 63.25C1243.33 63.25 1245.46 65.3792 1245.46 67.8125C1245.46 70.2458 1243.33 72.375 1240.9 72.375C1238.46 72.375 1236.33 70.2458 1236.33 67.8125C1236.33 65.3792 1238.46 63.25 1240.9 63.25ZM1256.1 63.25C1258.54 63.25 1260.67 65.3792 1260.67 67.8125C1260.67 70.2458 1258.54 72.375 1256.1 72.375C1253.67 72.375 1251.54 70.2458 1251.54 67.8125C1251.54 65.3792 1253.67 63.25 1256.1 63.25ZM1265.23 75.4167C1267.66 75.4167 1269.79 77.5458 1269.79 79.9792C1269.79 82.4125 1267.66 84.5417 1265.23 84.5417C1262.8 84.5417 1260.67 82.4125 1260.67 79.9792C1260.67 77.5458 1262.8 75.4167 1265.23 75.4167Z" fill="white"/>
</svg>
